<svg xmlns="http://www.w3.org/2000/svg" data-name="Customer Segmentation" viewBox="0 0 64 64" id="marketing"><path fill="#84c9d9" d="m30,9v8c0,.55-.45,1-1,1-9.37,0-17,7.63-17,17H2c0-14.89,12.11-27,27-27,.55,0,1,.45,1,1Z"></path><path fill="#4e8da6" d="m29,52v10c-14.89,0-27-12.11-27-27h10c0,9.37,7.63,17,17,17Z"></path><path fill="#1e4359" d="m56,35c0,14.89-12.11,27-27,27v-10c9.37,0,17-7.63,17-17,0-.55.45-1,1-1h8c.55,0,1,.45,1,1Z"></path><path fill="#a67f5d" d="m29,2c-.55,0-1,.45-1,1v32c0,.55.45,1,1,1h32c.55,0,1-.45,1-1C62,16.8,47.2,2,29,2Z"></path><circle cx="41" cy="16" r="5" fill="#8c442a"></circle><path fill="#8c442a" d="M41 22c-3.86 0-7 3.14-7 7v1c0 .55.45 1 1 1h12c.55 0 1-.45 1-1v-1c0-3.86-3.14-7-7-7zM49 18c-.15 0-.3-.03-.45-.11-.49-.25-.69-.85-.45-1.34l3-6c.17-.34.52-.55.89-.55h9c.55 0 1 .45 1 1s-.45 1-1 1h-8.38l-2.72 5.45c-.18.35-.53.55-.9.55zM61 8h-9c-.55 0-1-.45-1-1s.45-1 1-1h9c.55 0 1 .45 1 1s-.45 1-1 1zM61 4h-9c-.55 0-1-.45-1-1s.45-1 1-1h9c.55 0 1 .45 1 1s-.45 1-1 1z"></path></svg>